:SAMPLES-PER-SECOND 30
:FULLY-SPECIFIED
:DEGREES
196
root  -21.9346 31.209 18.3775 -170.099 50.7833 179.425
RightUpLeg  -41.3347 -10.2968 -1.48753
RightLeg  49.5302 3.90938 3.97078
RightFoot  -8.48418 -0.0750381 -0.491861
RightToes  -30.4276 -0.146877 -0.254927
Spine  5.08341 1.34292 1.81504
Spine1  9.99335 3.40548 3.24067
HEad  -47.8244 -6.56454 4.96674
LeftShoulder1  -1.94126e-019 -3.10601e-018 -2.51263e-017
LeftArm  -0.231194 -1.20456 -76.0611
LeftForeArm  25.1286 -50.1456 -11.4578
LeftHand  -0.649305 -0.11223 13.7763
RightShoulder  -4.96962e-017 0 -2.36833e-017
RightArm  -11.4865 18.6458 74.3377
RightForeArm  45.9535 31.125 4.20489
RightHand  -0.331224 -2.62346 -13.5759
LeftUpLeg  -31.1985 12.6937 3.9655
LeftLeg  52.2077 4.21842 4.74734
LeftFoot  -16.2516 -0.250878 -1.59543
LeftToes  -25.783 1.9075e-006 4.29692e-008
197
root  -21.8108 31.082 18.3603 -170.162 50.2319 179.772
RightUpLeg  -41.338 -10.5939 -1.23515
RightLeg  50.6491 3.75058 3.95802
RightFoot  -8.97275 -0.0848326 -0.562933
RightToes  -30.0469 -0.144244 -0.252292
Spine  5.05952 0.980847 1.61861
Spine1  9.86352 2.42806 3.09613
HEad  -50.058 -5.53457 5.04506
LeftShoulder1  -1.94126e-019 -3.10601e-018 -2.51263e-017
LeftArm  1.45286 -3.27525 -76.8871
LeftForeArm  24.505 -51.119 -11.9551
LeftHand  -0.612564 0.101295 13.5098
RightShoulder  -4.96962e-017 0 -2.36833e-017
RightArm  -10.2519 15.4262 73.4851
RightForeArm  45.7873 33.2788 4.70634
RightHand  -0.334281 -2.60561 -13.6194
LeftUpLeg  -30.7035 13.9497 4.46604
LeftLeg  52.2939 3.04533 3.44008
LeftFoot  -17.5118 -0.214726 -1.23255
LeftToes  -27.4802 1.9075e-006 4.29692e-008
198
root  -21.6627 31.3149 18.2911 -170.126 49.9847 179.659
RightUpLeg  -40.2479 -10.7414 -1.24339
RightLeg  48.9828 3.77313 3.75978
RightFoot  -8.61389 -0.0803776 -0.549325
RightToes  -29.978 -0.14377 -0.251813
Spine  4.84297 0.491201 1.40984
Spine1  9.38747 1.27797 2.85736
HEad  -51.0877 -3.90535 4.28926
LeftShoulder1  -1.94126e-019 -3.10601e-018 -2.51263e-017
LeftArm  2.98342 -4.1152 -77.6526
LeftForeArm  25.0301 -53.4673 -13.0908
LeftHand  -0.60131 -0.236355 12.4959
RightShoulder  -4.96962e-017 0 -2.36833e-017
RightArm  -8.89634 11.8642 73.1465
RightForeArm  47.0886 34.1194 4.84315
RightHand  -0.346675 -2.27161 -12.6563
LeftUpLeg  -29.8704 13.4618 4.50079
LeftLeg  50.6399 3.33179 3.55178
LeftFoot  -16.4356 -0.202831 -1.24287
LeftToes  -28.4457 1.9075e-006 4.29692e-008
199
root  -21.5129 31.884 18.2129 -169.275 50.1524 179.781
RightUpLeg  -38.3729 -10.3906 -1.04728
RightLeg  44.4836 4.0118 3.423
RightFoot  -7.16098 -0.0605663 -0.449652
RightToes  -30.7251 -0.148946 -0.256974
Spine  4.36867 0.192986 1.23034
Spine1  8.44369 0.541603 2.69727
HEad  -51.27 -2.77653 3.62808
LeftShoulder1  -1.94126e-019 -3.10601e-018 -2.51263e-017
LeftArm  5.11526 -4.33597 -78.4052
LeftForeArm  27.3828 -56.4884 -14.6237
LeftHand  -0.650165 -0.987255 11.9699
RightShoulder  -4.96962e-017 0 -2.36833e-017
RightArm  -8.74725 7.43007 73.1697
RightForeArm  46.4977 34.1404 4.88649
RightHand  -0.330217 -2.31044 -12.1854
LeftUpLeg  -28.0564 13.2377 4.47762
LeftLeg  46.13 4.28953 3.90575
LeftFoot  -14.8616 -0.199208 -1.36577
LeftToes  -30.1192 1.9075e-006 4.29692e-008
200
root  -21.3106 32.6306 18.0766 -168.149 50.9757 179.573
RightUpLeg  -36.1426 -9.75284 -1.0469
RightLeg  38.4966 4.22325 2.91044
RightFoot  -6.80976 -0.0562466 -0.427064
RightToes  -33.5042 -0.168781 -0.275568
Spine  3.67635 0.0472031 0.980589
Spine1  7.08585 0.17401 2.36077
HEad  -51.315 -1.73834 2.84318
LeftShoulder1  -1.94126e-019 -3.10601e-018 -2.51263e-017
LeftArm  7.08286 -3.77669 -78.6627
LeftForeArm  31.082 -60.429 -17.0333
LeftHand  -0.707673 -1.607 11.906
RightShoulder  -4.96962e-017 0 -2.36833e-017
RightArm  -10.2175 2.13523 73.651
RightForeArm  45.5681 34.9721 5.1462
RightHand  -0.296059 -2.22015 -10.5822
LeftUpLeg  -25.3322 13.2295 4.0563
LeftLeg  39.7785 6.40689 4.64502
LeftFoot  -15.4437 -0.293184 -2.00044
LeftToes  -30.5189 1.9075e-006 4.29692e-008
201
root  -21.1288 33.3799 17.8733 -166.495 51.6943 179.372
RightUpLeg  -34.3245 -10.5804 -0.708624
RightLeg  32.4513 5.23926 2.85802
RightFoot  -8.28398 -0.0872317 -0.692972
RightToes  -33.4606 -0.168463 -0.275284
Spine  2.9521 -0.25859 0.928823
Spine1  5.70156 -0.435155 2.2993
HEad  -52.3176 -0.0130239 1.65396
LeftShoulder1  -1.94126e-019 -3.10601e-018 -2.51263e-017
LeftArm  7.73723 -3.18549 -78.6757
LeftForeArm  36.0426 -64.9669 -20.7443
LeftHand  -0.740441 -2.20926 11.5033
RightShoulder  -4.96962e-017 0 -2.36833e-017
RightArm  -11.1193 -2.55553 73.6079
RightForeArm  44.9443 36.8693 5.66499
RightHand  -0.276166 -2.19064 -9.75677
LeftUpLeg  -22.5126 10.9698 3.43969
LeftLeg  32.5284 10.1295 5.52827
LeftFoot  -17.2189 -0.530227 -3.33945
LeftToes  -25.5519 1.9075e-006 4.29692e-008
202
root  -21.0413 33.9403 17.6804 -164.036 52.3142 179.29
RightUpLeg  -34.0396 -12.3522 -0.0389708
RightLeg  28.0589 3.85844 1.73869
RightFoot  -11.4488 -0.118253 -0.659836
RightToes  -28.3877 -0.132978 -0.240606
Spine  2.06913 -0.374815 1.14123
Spine1  4.02582 -0.625367 2.73685
HEad  -54.2949 1.67374 0.0611024
LeftShoulder1  -1.94126e-019 -3.10601e-018 -2.51263e-017
LeftArm  8.21837 -3.32123 -78.7419
LeftForeArm  42.8297 -69.196 -25.5777
LeftHand  -0.79697 -3.20936 10.9889
RightShoulder  -4.96962e-017 0 -2.36833e-017
RightArm  -12.5631 -6.94076 72.656
RightForeArm  44.924 40.2073 6.57697
RightHand  -0.295465 -1.63858 -8.98342
LeftUpLeg  -20.8371 6.43219 2.94779
LeftLeg  25.7271 14.2969 5.70689
LeftFoot  -18.4811 -0.820011 -4.87557
LeftToes  -19.4581 1.9075e-006 4.29692e-008
203
root  -20.8685 34.2466 17.5022 -161.995 53.4816 179.826
RightUpLeg  -33.6643 -14.2582 0.915307
RightLeg  25.5951 0.74443 0.293567
RightFoot  -13.5011 -0.0619855 0.0149437
RightToes  -27.2674 -0.125564 -0.232533
Spine  1.74471 -0.266472 1.46851
Spine1  3.41778 -0.395817 3.39387
HEad  -57.2811 3.57175 -1.32755
LeftShoulder1  -1.94126e-019 -3.10601e-018 -2.51263e-017
LeftArm  8.15013 -4.6859 -78.1848
LeftForeArm  50.3503 -72.7945 -31.7842
LeftHand  -0.817592 -3.71521 10.6713
RightShoulder  -4.96962e-017 0 -2.36833e-017
RightArm  -14.2411 -9.18913 71.6733
RightForeArm  44.6905 42.9704 7.41054
RightHand  -0.302681 -1.41615 -8.71765
LeftUpLeg  -19.0886 2.86702 3.06868
LeftLeg  20.5306 17.5115 5.20392
LeftFoot  -18.6733 -1.00383 -5.93834
LeftToes  -13.1272 1.9075e-006 4.29692e-008
